HIERARCHY
ROOT Hips
{
	OFFSET 0.000000 0.000000 0.000000
	CHANNELS 6 Xposition Yposition Zposition Xrotation Yrotation Zrotation
	JOINT LeftUpLeg_virtual
	{
		OFFSET 0.000000 0.000000 0.000000
		CHANNELS 3 Xrotation Yrotation Zrotation
		JOINT LeftUpLeg
		{
			OFFSET 10.205400 -3.823500 0.155100
			CHANNELS 3 Xrotation Yrotation Zrotation
			JOINT LeftLeg
			{
				OFFSET 0.708757 -12.982077 0.567790
				CHANNELS 3 Xrotation Yrotation Zrotation
				JOINT LeftFoot
				{
					OFFSET -0.708756 -10.717838 -2.184338
					CHANNELS 3 Xrotation Yrotation Zrotation
					JOINT LeftToeBase
					{
						OFFSET 0.108149 -7.191104 7.560241
						CHANNELS 3 Xrotation Yrotation Zrotation
						JOINT LeftToe_End
						{
							OFFSET 0.070230 0.081724 4.490308
							CHANNELS 3 Xrotation Yrotation Zrotation
							End Site
							{
								OFFSET 0 0 0
							}
						}
					}
				}
			}
		}
	}
	JOINT RightUpLeg_virtual
	{
		OFFSET 0.000000 0.000000 0.000000
		CHANNELS 3 Xrotation Yrotation Zrotation
		JOINT RightUpLeg
		{
			OFFSET -10.205400 -3.823500 0.005500
			CHANNELS 3 Xrotation Yrotation Zrotation
			JOINT RightLeg
			{
				OFFSET -0.708756 -12.982134 0.610632
				CHANNELS 3 Xrotation Yrotation Zrotation
				JOINT RightFoot
				{
					OFFSET 0.708754 -10.717769 -1.945823
					CHANNELS 3 Xrotation Yrotation Zrotation
					JOINT RightToeBase
					{
						OFFSET -0.108140 -7.191069 7.372968
						CHANNELS 3 Xrotation Yrotation Zrotation
						JOINT RightToe_End
						{
							OFFSET -0.070227 0.081735 4.479403
							CHANNELS 3 Xrotation Yrotation Zrotation
							End Site
							{
								OFFSET 0 0 0
							}
						}
					}
				}
			}
		}
	}
	JOINT Spine_virtual
	{
		OFFSET 0.000000 0.000000 0.000000
		CHANNELS 3 Xrotation Yrotation Zrotation
		JOINT Spine
		{
			OFFSET 0.000000 6.876099 0.125700
			CHANNELS 3 Xrotation Yrotation Zrotation
			JOINT Spine1
			{
				OFFSET 0.000000 5.730043 0.104720
				CHANNELS 3 Xrotation Yrotation Zrotation
				JOINT Spine1_split
				{
					OFFSET 0.000000 5.730043 0.104720
					CHANNELS 3 Xrotation Yrotation Zrotation
					JOINT Spine2
					{
						OFFSET 0.000000 5.730043 0.104720
						CHANNELS 3 Xrotation Yrotation Zrotation
						JOINT Neck_virtual
						{
							OFFSET 0.000000 0.000000 0.000000
							CHANNELS 3 Xrotation Yrotation Zrotation
							JOINT Neck
							{
								OFFSET 0.000000 10.314075 0.188496
								CHANNELS 3 Xrotation Yrotation Zrotation
								JOINT Head
								{
									OFFSET 0.000000 7.643700 -2.377400
									CHANNELS 3 Xrotation Yrotation Zrotation
									JOINT HeadTop_End
									{
										OFFSET 0.000000 43.788605 -13.619600
										CHANNELS 3 Xrotation Yrotation Zrotation
										End Site
										{
											OFFSET 0 0 0
										}
									}
								}
							}
						}
						JOINT LeftShoulder_virtual
						{
							OFFSET 0.000000 0.000000 0.000000
							CHANNELS 3 Xrotation Yrotation Zrotation
							JOINT LeftShoulder
							{
								OFFSET 2.196100 4.412489 0.087492
								CHANNELS 3 Xrotation Yrotation Zrotation
								JOINT LeftShoulder_split
								{
									OFFSET 2.196100 4.412489 0.087492
									CHANNELS 3 Xrotation Yrotation Zrotation
									JOINT LeftArm
									{
										OFFSET 8.771219 -2.981674 -0.026999
										CHANNELS 3 Xrotation Yrotation Zrotation
										JOINT LeftForeArm
										{
											OFFSET 8.512804 0.000000 -0.000000
											CHANNELS 3 Xrotation Yrotation Zrotation
											JOINT LeftHand
											{
												OFFSET 18.484802 0.000000 -0.000000
												CHANNELS 3 Xrotation Yrotation Zrotation
												End Site
												{
													OFFSET 0 0 0
												}
											}
										}
									}
								}
							}
						}
						JOINT RightShoulder_virtual
						{
							OFFSET 0.000000 0.000000 0.000000
							CHANNELS 3 Xrotation Yrotation Zrotation
							JOINT RightShoulder
							{
								OFFSET -2.196100 4.412496 0.070690
								CHANNELS 3 Xrotation Yrotation Zrotation
								JOINT RightShoulder_split
								{
									OFFSET -2.196100 4.412496 0.070690
									CHANNELS 3 Xrotation Yrotation Zrotation
									JOINT RightArm
									{
										OFFSET -8.771282 -2.981682 -0.094208
										CHANNELS 3 Xrotation Yrotation Zrotation
										JOINT RightForeArm
										{
											OFFSET -8.494598 0.000000 0.000000
											CHANNELS 3 Xrotation Yrotation Zrotation
											JOINT RightHand
											{
												OFFSET -18.483803 0.000000 0.000001
												CHANNELS 3 Xrotation Yrotation Zrotation
												End Site
												{
													OFFSET 0 0 0
												}
											}
										}
									}
								}
							}
						}
					}
				}
			}
		}
	}
}
MOTION
Frames: 4
Frame Time: 0.03333333
0.188625 44.975048 8.081474 0.000000 0.000000 0.000000 -90.805774 -2.094023 1.577455 -11.572580 16.985169 19.744829 16.690404 0.139155 1.045687 18.742594 31.315659 -28.114232 -1.872561 0.000003 0.000003 0.000000 0.000000 0.000000 -90.805774 -2.094023 1.577455 -16.879631 -15.344339 -20.647699 24.421341 -3.355074 -4.547239 25.521864 -32.925497 33.970998 -4.604190 0.000018 -0.000002 0.000000 0.000000 0.000000 -90.805774 -2.094023 1.577455 0.697333 -0.115324 -0.728599 0.841703 0.154199 -0.463160 0.000000 0.000000 0.000000 0.000000 0.000000 0.000000 0.831234 0.158014 -0.488483 -3.902724 4.009046 -8.413906 2.479700 8.403992 -12.879455 0.000000 0.000000 0.000000 0.831234 0.158014 -0.488483 0.834127 -6.730778 -3.480283 0.000000 0.000000 0.000000 44.076584 -39.845855 -34.620914 -0.000040 -83.340500 -0.000024 0.000000 0.000000 0.000000 0.831234 0.158014 -0.488483 0.483611 4.500680 3.202682 0.000000 0.000000 0.000000 -4.326314 2.268511 83.611508 179.999991 50.428052 179.999991 0.000000 0.000000 0.000000 
0.189126 44.974949 8.082249 0.000000 0.000000 0.000000 -90.807529 -2.093398 1.579816 -11.573448 16.983629 19.747907 16.699254 0.113429 1.044775 18.741281 31.314163 -28.113385 -1.862386 0.000000 0.000000 0.000000 0.000000 0.000000 -90.807529 -2.093398 1.579816 -16.883428 -15.347710 -20.650636 24.422181 -3.337312 -4.547166 25.522494 -32.925323 33.967610 -4.622816 0.000027 -0.000028 0.000000 0.000000 0.000000 -90.807529 -2.093398 1.579816 0.697313 -0.115285 -0.728601 0.841686 0.154199 -0.463160 0.000000 0.000000 0.000000 0.000000 0.000000 0.000000 0.831231 0.158014 -0.488483 -3.937782 4.024677 -8.413910 2.565406 8.514518 -12.913615 0.000000 0.000000 0.000000 0.831231 0.158014 -0.488483 0.834869 -6.690154 -3.495166 0.000000 0.000000 0.000000 44.105844 -39.875044 -34.542930 0.000009 -83.340500 0.000005 0.000000 0.000000 0.000000 0.831231 0.158014 -0.488483 0.485161 4.473281 3.202552 0.000000 0.000000 0.000000 -4.337904 2.290720 83.617642 179.999978 50.440039 -179.999991 0.000000 0.000000 0.000000 
0.190361 44.975357 8.083065 0.000000 0.000000 0.000000 -90.810241 -2.092287 1.581426 -11.578365 16.998961 19.746663 16.698824 0.088682 1.043888 18.734442 31.308843 -28.105090 -1.833873 0.000009 -0.000009 0.000000 0.000000 0.000000 -90.810241 -2.092287 1.581426 -16.885664 -15.369428 -20.653503 24.425996 -3.320816 -4.546218 25.513147 -32.924541 33.958413 -4.673342 0.000069 -0.000059 0.000000 0.000000 0.000000 -90.810241 -2.092287 1.581426 0.697322 -0.115388 -0.728190 0.841707 0.154199 -0.463161 0.000000 0.000000 0.000000 0.000000 0.000000 0.000000 0.835893 0.158014 -0.488483 -4.036200 4.064477 -8.413905 2.850473 8.636299 -13.049391 0.000000 0.000000 0.000000 0.835893 0.158014 -0.488483 0.835475 -6.617853 -3.528159 0.000000 0.000000 0.000000 44.151419 -39.911176 -34.423033 -0.000044 -83.340500 -0.000039 0.000000 0.000000 0.000000 0.835893 0.158014 -0.488483 0.487198 4.436644 3.202351 0.000000 0.000000 0.000000 -4.352106 2.322225 83.628809 179.999978 50.456936 -179.999991 0.000000 0.000000 0.000000 
0.191310 44.975727 8.084072 0.000000 0.000000 0.000000 -90.813423 -2.090823 1.582094 -11.584902 17.025761 19.743927 16.693390 0.064752 1.042269 18.722346 31.300496 -28.092235 -1.790953 0.000032 0.000008 0.000000 0.000000 0.000000 -90.813423 -2.090823 1.582094 -16.894372 -15.395684 -20.671554 24.444694 -3.287216 -4.545213 25.490766 -32.923561 33.946361 -4.750215 0.000045 -0.000006 0.000000 0.000000 0.000000 -90.813423 -2.090823 1.582094 0.697288 -0.115617 -0.727128 0.851523 0.154199 -0.463161 0.000000 0.000000 0.000000 0.000000 0.000000 0.000000 0.847210 0.158014 -0.488483 -4.186782 4.120710 -8.398719 3.319339 8.757723 -13.359935 0.000000 0.000000 0.000000 0.847210 0.158014 -0.488483 0.836091 -6.520416 -3.575793 0.000000 0.000000 0.000000 44.209229 -39.951928 -34.271304 -0.000017 -83.340500 0.000009 0.000000 0.000000 0.000000 0.847210 0.158014 -0.488483 0.489744 4.391516 3.202171 0.000000 0.000000 0.000000 -4.368882 2.362219 83.641568 179.999978 50.478236 -179.999991 0.000000 0.000000 0.000000 
